<?xml version="1.0" encoding="utf-8"?>
<!-- Generator: Adobe Illustrator 26.0.1, SVG Export Plug-In . SVG Version: 6.00 Build 0)  -->
<svg version="1.1" id="Layer_1" xmlns="http://www.w3.org/2000/svg" xmlns:xlink="http://www.w3.org/1999/xlink" x="0px" y="0px"
	 viewBox="0 0 361.4 135.5" style="enable-background:new 0 0 361.4 135.5;" xml:space="preserve">
<style type="text/css">
	.st0{fill:#0A2A3B;}
	.st1{fill:#579ABB;}
</style>
<g>
	<g>
		<path class="st0" d="M33.2,70.7c-1.4,0-2.7-0.2-3.8-0.7c-1.2-0.4-2.2-1.1-3.1-1.9c-0.9-0.8-1.6-1.9-2.1-3.1
			c-0.5-1.2-0.8-2.6-0.8-4c0-1.5,0.3-2.8,0.8-4s1.2-2.3,2.1-3.2c0.9-0.9,2-1.6,3.2-2.1c1.3-0.5,2.6-0.7,4-0.7c1,0,2,0.1,2.8,0.4
			c0.8,0.3,1.6,0.5,2.2,0.9l0.8-0.7h1.1l0.1,6.8h-1.2c-0.7-2.1-1.4-3.6-2.4-4.6c-1-1-2-1.5-3.4-1.5c-1.7,0-2.9,0.7-3.8,2.2
			s-1.3,3.5-1.3,6.1c0,1.5,0.1,2.8,0.4,3.8c0.3,1.1,0.7,1.9,1.2,2.5c0.5,0.7,1.1,1.2,1.8,1.5c0.7,0.3,1.5,0.5,2.3,0.5
			c1.2,0,2.3-0.3,3.3-1s1.8-1.7,2.6-3l1.1,0.7c-0.4,0.8-0.8,1.5-1.3,2.1s-1,1.1-1.7,1.6s-1.5,0.9-2.3,1.1
			C35.3,70.6,34.3,70.7,33.2,70.7z"/>
	</g>
	<g>
		<path class="st0" d="M68.8,70.2H58.6v-1c0.2,0,0.5,0,1-0.1s0.7-0.1,0.9-0.2c0.3-0.1,0.5-0.3,0.7-0.5c0.1-0.2,0.2-0.5,0.2-0.8v-6.4
			h-8v6.3c0,0.3,0.1,0.6,0.2,0.8c0.1,0.2,0.3,0.4,0.7,0.6c0.2,0.1,0.5,0.1,0.9,0.2c0.4,0.1,0.7,0.1,1,0.1v1H45.9v-1
			c0.2,0,0.5,0,1-0.1c0.4,0,0.7-0.1,0.9-0.2c0.3-0.1,0.5-0.3,0.7-0.5c0.1-0.2,0.2-0.5,0.2-0.8V54.4c0-0.3-0.1-0.6-0.2-0.8
			c-0.1-0.2-0.3-0.4-0.7-0.6c-0.3-0.1-0.6-0.2-1-0.3c-0.4-0.1-0.7-0.1-0.9-0.2v-1H56v1c-0.3,0-0.6,0.1-1,0.1c-0.4,0-0.7,0.1-0.9,0.2
			c-0.3,0.1-0.6,0.3-0.7,0.5c-0.1,0.3-0.2,0.5-0.2,0.8v5.6h8v-5.5c0-0.3-0.1-0.6-0.2-0.8c-0.1-0.2-0.3-0.4-0.7-0.6
			c-0.2-0.1-0.5-0.2-0.9-0.3s-0.7-0.2-0.9-0.2v-1h10.1v1c-0.3,0-0.6,0.1-0.9,0.1c-0.4,0.1-0.7,0.1-0.9,0.2c-0.3,0.1-0.6,0.3-0.7,0.5
			c-0.1,0.2-0.2,0.5-0.2,0.8v13.2c0,0.3,0.1,0.6,0.2,0.8c0.1,0.2,0.3,0.4,0.7,0.6c0.2,0.1,0.5,0.2,0.9,0.2c0.4,0.1,0.7,0.1,1,0.1
			v1.4H68.8z"/>
	</g>
	<g>
		<path class="st0" d="M94.1,70.2H83.9v-1c0.5,0,1-0.1,1.7-0.3c0.6-0.1,1-0.3,1-0.5c0-0.1,0-0.1,0-0.2s0-0.2-0.1-0.4l-1.6-3.9h-6.5
			c-0.1,0.4-0.3,0.8-0.5,1.3c-0.2,0.5-0.3,0.9-0.5,1.3c-0.2,0.5-0.3,0.8-0.3,1.1c0,0.2,0,0.4,0,0.5c0,0.3,0.2,0.5,0.6,0.7
			s1.1,0.3,2.1,0.4v1h-7.7v-1c0.3,0,0.6-0.1,1-0.1c0.4-0.1,0.7-0.2,0.9-0.3c0.4-0.2,0.7-0.5,0.9-0.8c0.3-0.3,0.5-0.7,0.6-1.1
			c1-2.5,2-4.9,3.1-7.4c1-2.5,2.2-5.2,3.4-8.2h2.6c1.7,4.2,3.1,7.6,4,10s1.8,4.5,2.5,6.1c0.1,0.3,0.3,0.5,0.4,0.7
			c0.2,0.2,0.4,0.4,0.8,0.6c0.2,0.1,0.5,0.2,0.9,0.3s0.6,0.1,0.9,0.1L94.1,70.2z M84.3,62.6l-2.7-6.8l-2.7,6.8H84.3z"/>
	</g>
	<g>
		<path class="st0" d="M115.1,64.2l-0.4,6H97.5v-1c0.3,0,0.7-0.1,1.1-0.1c0.4-0.1,0.7-0.1,0.8-0.2c0.3-0.1,0.5-0.3,0.7-0.5
			s0.2-0.5,0.2-0.8V54.4c0-0.3,0-0.6-0.1-0.8s-0.3-0.4-0.7-0.6c-0.3-0.1-0.6-0.2-1-0.3s-0.7-0.1-0.9-0.2v-1h10.3v1
			c-0.3,0-0.6,0.1-1,0.1s-0.7,0.1-1,0.2s-0.6,0.3-0.7,0.5s-0.2,0.5-0.2,0.8v12.3c0,0.6,0,1,0.1,1.4c0.1,0.3,0.2,0.6,0.5,0.7
			c0.2,0.2,0.5,0.3,1,0.3c0.4,0,1,0.1,1.7,0.1s1.4,0,2-0.1c0.7-0.1,1.1-0.3,1.4-0.5c0.4-0.4,0.9-1.1,1.4-1.9s0.8-1.6,1.1-2.2H115.1z
			"/>
	</g>
	<g>
		<path class="st0" d="M129.6,70.2h-10.4v-1c0.2,0,0.6,0,1-0.1c0.5,0,0.8-0.1,1-0.2c0.3-0.1,0.5-0.3,0.7-0.5
			c0.1-0.2,0.2-0.5,0.2-0.8V54.3c0-0.3-0.1-0.6-0.2-0.8s-0.3-0.4-0.7-0.6c-0.2-0.1-0.5-0.2-0.9-0.3s-0.8-0.2-1.1-0.2v-1h10.4v1
			c-0.3,0-0.6,0.1-1,0.1c-0.4,0-0.7,0.1-1,0.2s-0.6,0.3-0.7,0.5s-0.2,0.5-0.2,0.8v13.2c0,0.3,0.1,0.6,0.2,0.8s0.3,0.4,0.7,0.5
			c0.2,0.1,0.5,0.2,0.9,0.2c0.4,0.1,0.8,0.1,1.1,0.1V70.2z"/>
	</g>
	<g>
		<path class="st0" d="M156.5,70.2h-7.4c-1.1-1.7-2.1-3.1-3-4.3c-0.9-1.2-2-2.6-3.4-4.3H142v5.9c0,0.3,0.1,0.6,0.2,0.8
			c0.1,0.2,0.3,0.4,0.7,0.6c0.2,0.1,0.4,0.1,0.7,0.2s0.6,0.1,0.9,0.2v1h-9.9v-1c0.2,0,0.6,0,1-0.1c0.4,0,0.7-0.1,0.9-0.2
			c0.3-0.1,0.5-0.3,0.7-0.5s0.2-0.5,0.2-0.8V54.4c0-0.3-0.1-0.6-0.2-0.8c-0.1-0.2-0.3-0.4-0.7-0.6c-0.3-0.1-0.6-0.2-1-0.3
			c-0.4-0.1-0.7-0.1-0.9-0.2v-1h10.3v1c-0.3,0-0.6,0.1-1,0.1c-0.4,0-0.7,0.1-1,0.2s-0.6,0.3-0.7,0.5c-0.1,0.2-0.2,0.5-0.2,0.8v6.3
			h0.6c0.7-0.6,1.5-1.4,2.4-2.3c0.9-0.9,1.6-1.6,2.1-2.2c0.7-0.8,1.2-1.4,1.5-1.9s0.5-0.9,0.5-1.2c0-0.1-0.2-0.3-0.5-0.3
			s-0.8-0.1-1.5-0.2v-1h8.1v1c-1,0.1-1.8,0.3-2.5,0.5c-0.7,0.3-1.3,0.7-2,1.3c-0.9,0.8-1.7,1.6-2.3,2.2s-1.4,1.4-2.3,2.4
			c0.8,1,1.9,2.3,3,3.8c1.2,1.5,2.4,2.9,3.5,4.4c0.3,0.4,0.6,0.7,1,1s0.8,0.6,1.3,0.8c0.2,0.1,0.5,0.2,0.8,0.2
			c0.3,0.1,0.5,0.1,0.7,0.1v1.2H156.5z"/>
	</g>
	<g>
		<path class="st0" d="M190.7,70.2h-7.8c-0.2-0.2-0.5-0.5-0.8-0.9s-0.6-0.7-0.9-1c-0.9,0.9-1.9,1.5-2.8,1.9c-0.9,0.4-1.9,0.6-3,0.6
			c-1.6,0-3-0.4-4-1.3c-1.1-0.9-1.6-2-1.6-3.5c0-0.7,0.1-1.3,0.3-1.8c0.2-0.5,0.5-1,0.9-1.5s0.9-0.9,1.5-1.3s1.3-0.8,2-1.1
			c-0.8-1-1.3-1.9-1.7-2.6c-0.3-0.7-0.5-1.4-0.5-2.2c0-1.3,0.5-2.3,1.6-3.1s2.3-1.2,3.8-1.2c1.4,0,2.5,0.3,3.3,1s1.3,1.5,1.3,2.6
			c0,0.9-0.3,1.8-0.8,2.5s-1.4,1.5-2.5,2.2c1,1.2,1.7,2.2,2.2,2.8s1.2,1.4,2.1,2.4c0.6-0.8,1-1.6,1.2-2.3c0.3-0.7,0.4-1.3,0.4-1.7
			c0-0.3-0.2-0.5-0.6-0.6c-0.4-0.2-0.9-0.3-1.7-0.5v-1h7.4v1c-0.8,0.1-1.4,0.2-1.8,0.3c-0.4,0.1-0.8,0.4-1.1,0.8
			c-0.2,0.2-0.4,0.4-0.6,0.8c-0.2,0.4-0.5,0.8-0.7,1.2c-0.3,0.4-0.5,0.9-0.8,1.4c-0.3,0.5-0.6,1-1.1,1.5c0.8,1,1.5,1.7,2,2.1
			c0.5,0.5,1,0.8,1.3,1c0.4,0.2,0.9,0.4,1.4,0.5c0.6,0.1,1.2,0.2,1.7,0.2v0.8H190.7z M180.6,67.4c-0.7-0.9-1.6-1.9-2.6-3.1
			c-1-1.2-1.9-2.3-2.7-3.4c-0.5,0.5-0.8,1-1,1.6s-0.3,1.2-0.3,1.8c0,1.2,0.4,2.1,1.1,2.9s1.7,1.1,2.8,1.1c0.5,0,1-0.1,1.4-0.2
			S180.2,67.7,180.6,67.4z M180.5,54.7c0-0.8-0.2-1.4-0.6-1.8c-0.4-0.4-0.9-0.7-1.5-0.7s-1,0.2-1.4,0.5c-0.4,0.4-0.5,0.8-0.5,1.4
			c0,0.5,0.2,1.1,0.5,1.7s0.8,1.4,1.5,2.3c0.7-0.5,1.2-1,1.5-1.6C180.4,56,180.5,55.4,180.5,54.7z"/>
	</g>
	<g>
		<path class="st0" d="M214.7,70.7c-1.4,0-2.7-0.2-3.8-0.7c-1.2-0.4-2.2-1.1-3.1-1.9c-0.9-0.8-1.6-1.9-2.1-3.1
			c-0.5-1.2-0.8-2.6-0.8-4c0-1.5,0.3-2.8,0.8-4s1.2-2.3,2.1-3.2c0.9-0.9,2-1.6,3.2-2.1c1.3-0.5,2.6-0.7,4-0.7c1,0,2,0.1,2.8,0.4
			s1.6,0.5,2.2,0.9l0.8-0.7h1.1l0.1,6.8h-1.2c-0.7-2.1-1.4-3.6-2.4-4.6s-2-1.5-3.4-1.5c-1.7,0-2.9,0.7-3.8,2.2s-1.3,3.5-1.3,6.1
			c0,1.5,0.1,2.8,0.4,3.8c0.3,1.1,0.7,1.9,1.2,2.5c0.5,0.7,1.1,1.2,1.8,1.5s1.5,0.5,2.3,0.5c1.2,0,2.3-0.3,3.3-1s1.8-1.7,2.6-3
			l1.1,0.7c-0.4,0.8-0.8,1.5-1.3,2.1s-1,1.1-1.7,1.6s-1.5,0.9-2.3,1.1C216.8,70.6,215.8,70.7,214.7,70.7z"/>
	</g>
	<g>
		<path class="st0" d="M250.3,70.2h-10.1v-1c0.2,0,0.5,0,1-0.1s0.7-0.1,0.9-0.2c0.3-0.1,0.5-0.3,0.7-0.5c0.1-0.2,0.2-0.5,0.2-0.8
			v-6.4h-8v6.3c0,0.3,0.1,0.6,0.2,0.8c0.1,0.2,0.3,0.4,0.7,0.6c0.2,0.1,0.5,0.1,0.9,0.2s0.7,0.1,1,0.1v1h-10.4v-1c0.2,0,0.5,0,1-0.1
			c0.4,0,0.7-0.1,0.9-0.2c0.3-0.1,0.5-0.3,0.7-0.5c0.1-0.2,0.2-0.5,0.2-0.8V54.4c0-0.3-0.1-0.6-0.2-0.8c-0.1-0.2-0.3-0.4-0.7-0.6
			c-0.3-0.1-0.6-0.2-1-0.3s-0.7-0.1-0.9-0.2v-1h10.1v1c-0.3,0-0.6,0.1-1,0.1s-0.7,0.1-0.9,0.2c-0.3,0.1-0.6,0.3-0.7,0.5
			c-0.1,0.3-0.2,0.5-0.2,0.8v5.6h8v-5.5c0-0.3-0.1-0.6-0.2-0.8c-0.1-0.2-0.3-0.4-0.7-0.6c-0.2-0.1-0.5-0.2-0.9-0.3s-0.7-0.2-0.9-0.2
			v-1h10.1v1c-0.3,0-0.6,0.1-0.9,0.1c-0.4,0.1-0.7,0.1-0.9,0.2c-0.3,0.1-0.6,0.3-0.7,0.5s-0.2,0.5-0.2,0.8v13.2
			c0,0.3,0.1,0.6,0.2,0.8s0.3,0.4,0.7,0.6c0.2,0.1,0.5,0.2,0.9,0.2c0.4,0.1,0.7,0.1,1,0.1L250.3,70.2L250.3,70.2z"/>
	</g>
	<g>
		<path class="st0" d="M275.6,70.2h-10.2v-1c0.5,0,1-0.1,1.7-0.3c0.6-0.1,1-0.3,1-0.5c0-0.1,0-0.1,0-0.2s0-0.2-0.1-0.4l-1.6-3.9
			h-6.5c-0.1,0.4-0.3,0.8-0.5,1.3c-0.2,0.5-0.3,0.9-0.5,1.3c-0.2,0.5-0.3,0.8-0.3,1.1c0,0.2,0,0.4,0,0.5c0,0.3,0.2,0.5,0.6,0.7
			s1.1,0.3,2.1,0.4v1h-7.7v-1c0.3,0,0.6-0.1,1-0.1c0.4-0.1,0.7-0.2,0.9-0.3c0.4-0.2,0.7-0.5,0.9-0.8c0.3-0.3,0.5-0.7,0.6-1.1
			c1-2.5,2-4.9,3.1-7.4c1-2.5,2.2-5.2,3.4-8.2h2.6c1.7,4.2,3.1,7.6,4,10s1.8,4.5,2.5,6.1c0.1,0.3,0.3,0.5,0.4,0.7
			c0.2,0.2,0.4,0.4,0.8,0.6c0.2,0.1,0.5,0.2,0.9,0.3s0.6,0.1,0.9,0.1L275.6,70.2L275.6,70.2z M265.8,62.6l-2.7-6.8l-2.7,6.8H265.8z"
			/>
	</g>
	<g>
		<path class="st0" d="M296.6,64.2l-0.4,6H279v-1c0.3,0,0.7-0.1,1.1-0.1c0.4-0.1,0.7-0.1,0.8-0.2c0.3-0.1,0.5-0.3,0.7-0.5
			s0.2-0.5,0.2-0.8V54.4c0-0.3,0-0.6-0.1-0.8s-0.3-0.4-0.7-0.6c-0.3-0.1-0.6-0.2-1-0.3s-0.7-0.1-0.9-0.2v-1h10.3v1
			c-0.3,0-0.6,0.1-1,0.1s-0.7,0.1-1,0.2s-0.6,0.3-0.7,0.5s-0.2,0.5-0.2,0.8v12.3c0,0.6,0,1,0.1,1.4c0.1,0.3,0.2,0.6,0.5,0.7
			c0.2,0.2,0.5,0.3,1,0.3c0.4,0,1,0.1,1.7,0.1s1.4,0,2-0.1c0.7-0.1,1.1-0.3,1.4-0.5c0.4-0.4,0.9-1.1,1.4-1.9s0.8-1.6,1.1-2.2H296.6z
			"/>
	</g>
	<g>
		<path class="st0" d="M311.1,70.2h-10.4v-1c0.2,0,0.6,0,1-0.1c0.5,0,0.8-0.1,1-0.2c0.3-0.1,0.5-0.3,0.7-0.5
			c0.1-0.2,0.2-0.5,0.2-0.8V54.3c0-0.3-0.1-0.6-0.2-0.8s-0.3-0.4-0.7-0.6c-0.2-0.1-0.5-0.2-0.9-0.3s-0.8-0.2-1.1-0.2v-1h10.4v1
			c-0.3,0-0.6,0.1-1,0.1s-0.7,0.1-1,0.2s-0.6,0.3-0.7,0.5s-0.2,0.5-0.2,0.8v13.2c0,0.3,0.1,0.6,0.2,0.8s0.3,0.4,0.7,0.5
			c0.2,0.1,0.5,0.2,0.9,0.2c0.4,0.1,0.8,0.1,1.1,0.1V70.2z"/>
	</g>
	<g>
		<path class="st0" d="M338,70.2h-7.4c-1.1-1.7-2.1-3.1-3-4.3s-2-2.6-3.4-4.3h-0.7v5.9c0,0.3,0.1,0.6,0.2,0.8s0.3,0.4,0.7,0.6
			c0.2,0.1,0.4,0.1,0.7,0.2c0.3,0.1,0.6,0.1,0.9,0.2v1h-9.9v-1c0.2,0,0.6,0,1-0.1c0.4,0,0.7-0.1,0.9-0.2c0.3-0.1,0.5-0.3,0.7-0.5
			s0.2-0.5,0.2-0.8V54.4c0-0.3-0.1-0.6-0.2-0.8s-0.3-0.4-0.7-0.6c-0.3-0.1-0.6-0.2-1-0.3s-0.7-0.1-0.9-0.2v-1h10.3v1
			c-0.3,0-0.6,0.1-1,0.1s-0.7,0.1-1,0.2s-0.6,0.3-0.7,0.5s-0.2,0.5-0.2,0.8v6.3h0.6c0.7-0.6,1.5-1.4,2.4-2.3s1.6-1.6,2.1-2.2
			c0.7-0.8,1.2-1.4,1.5-1.9s0.5-0.9,0.5-1.2c0-0.1-0.2-0.3-0.5-0.3s-0.8-0.1-1.5-0.2v-1h8.1v1c-1,0.1-1.8,0.3-2.5,0.5
			c-0.7,0.3-1.3,0.7-2,1.3c-0.9,0.8-1.7,1.6-2.3,2.2c-0.6,0.6-1.4,1.4-2.3,2.4c0.8,1,1.9,2.3,3,3.8c1.2,1.5,2.4,2.9,3.5,4.4
			c0.3,0.4,0.6,0.7,1,1s0.8,0.6,1.3,0.8c0.2,0.1,0.5,0.2,0.8,0.2c0.3,0.1,0.5,0.1,0.7,0.1L338,70.2L338,70.2z"/>
	</g>
</g>
<g>
	<path class="st1" d="M39.7,85.5v9.8h-2.4v-9.8H39.7z"/>
	<path class="st1" d="M53.5,95.3h-2.4l-4-6v6h-2.4v-9.8h2.4l4,6v-6h2.4V95.3z"/>
	<path class="st1" d="M64.6,85.5v6.6c0,1-0.3,1.8-0.9,2.4c-0.6,0.6-1.4,0.8-2.3,0.8c-1,0-1.9-0.3-2.5-0.9C58.3,93.9,58,93.1,58,92
		h2.4c0,0.4,0.1,0.7,0.2,0.9c0.2,0.2,0.4,0.3,0.7,0.3c0.3,0,0.5-0.1,0.7-0.3c0.2-0.2,0.2-0.5,0.2-0.8v-6.6H64.6z"/>
	<path class="st1" d="M72.2,85.5v5.8c0,0.6,0.1,1,0.4,1.3c0.3,0.3,0.7,0.5,1.3,0.5s1-0.2,1.3-0.5c0.3-0.3,0.4-0.8,0.4-1.3v-5.8H78
		v5.8c0,0.9-0.2,1.6-0.6,2.2c-0.4,0.6-0.9,1.1-1.5,1.4c-0.6,0.3-1.3,0.5-2.1,0.5c-0.8,0-1.5-0.2-2.1-0.5c-0.6-0.3-1.1-0.8-1.4-1.4
		c-0.4-0.6-0.5-1.3-0.5-2.2v-5.8H72.2z"/>
	<path class="st1" d="M88,95.3l-2-3.7h-0.6v3.7H83v-9.8h4c0.8,0,1.4,0.1,2,0.4s0.9,0.6,1.2,1.1c0.3,0.5,0.4,1,0.4,1.6
		c0,0.6-0.2,1.2-0.5,1.7s-0.9,0.9-1.6,1.1l2.3,3.9H88z M85.4,89.9h1.5c0.4,0,0.8-0.1,1-0.3c0.2-0.2,0.3-0.5,0.3-0.9
		c0-0.4-0.1-0.7-0.3-0.9c-0.2-0.2-0.5-0.3-1-0.3h-1.5V89.9z"/>
	<path class="st1" d="M103.8,85.5l-3.4,6.5v3.2H98v-3.2l-3.4-6.5h2.7l1.9,4.1l1.9-4.1H103.8z"/>
	<path class="st1" d="M121.8,95.3l-0.9-0.9c-0.9,0.7-2,1-3.2,1c-0.8,0-1.4-0.1-2-0.4c-0.6-0.2-1-0.6-1.3-1c-0.3-0.4-0.5-1-0.5-1.6
		c0-0.6,0.2-1.2,0.5-1.7c0.3-0.5,0.8-0.9,1.5-1.2c-0.2-0.3-0.4-0.6-0.5-0.9c-0.1-0.3-0.2-0.6-0.2-0.9c0-0.5,0.1-0.9,0.4-1.3
		s0.6-0.7,1-0.9s1-0.3,1.6-0.3c0.6,0,1.2,0.1,1.6,0.3c0.4,0.2,0.8,0.5,1,0.9c0.2,0.4,0.3,0.8,0.3,1.3h-2.2c0-0.2-0.1-0.4-0.2-0.6
		c-0.1-0.1-0.3-0.2-0.5-0.2s-0.4,0.1-0.6,0.2c-0.1,0.1-0.2,0.3-0.2,0.5c0,0.2,0.1,0.4,0.2,0.6c0.1,0.2,0.3,0.5,0.6,0.7l2.4,2.3
		c0,0,0-0.1,0.1-0.2c0-0.1,0.1-0.1,0.1-0.2l0.5-0.9h2.4l-0.7,1.2c-0.2,0.5-0.5,1.1-0.9,1.6l2.3,2.3H121.8z M119.5,93l-2.2-2.1
		c-0.7,0.3-1,0.8-1,1.4c0,0.4,0.1,0.6,0.4,0.9c0.3,0.2,0.6,0.4,1.1,0.4C118.5,93.5,119,93.4,119.5,93z"/>
	<path class="st1" d="M141.2,93.6h-3.6l-0.6,1.7h-2.5l3.5-9.8h2.8l3.5,9.8h-2.5L141.2,93.6z M140.6,91.7l-1.2-3.6l-1.2,3.6H140.6z"
		/>
	<path class="st1" d="M148.9,87.8c0.4-0.8,1-1.3,1.7-1.8s1.6-0.6,2.5-0.6c1.2,0,2.2,0.3,3,0.9c0.8,0.6,1.4,1.4,1.7,2.5h-2.6
		c-0.2-0.4-0.5-0.7-0.8-0.9c-0.4-0.2-0.8-0.3-1.2-0.3c-0.7,0-1.3,0.3-1.8,0.8c-0.5,0.5-0.7,1.2-0.7,2s0.2,1.5,0.7,2s1,0.8,1.8,0.8
		c0.5,0,0.9-0.1,1.2-0.3c0.4-0.2,0.6-0.5,0.8-0.9h2.6c-0.3,1.1-0.8,1.9-1.7,2.5c-0.8,0.6-1.8,0.9-3,0.9c-0.9,0-1.8-0.2-2.5-0.6
		c-0.7-0.4-1.3-1-1.7-1.8s-0.6-1.6-0.6-2.6S148.5,88.6,148.9,87.8z"/>
	<path class="st1" d="M162.8,87.8c0.4-0.8,1-1.3,1.7-1.8s1.6-0.6,2.5-0.6c1.2,0,2.2,0.3,3,0.9c0.8,0.6,1.4,1.4,1.7,2.5h-2.6
		c-0.2-0.4-0.5-0.7-0.8-0.9c-0.4-0.2-0.8-0.3-1.2-0.3c-0.7,0-1.3,0.3-1.8,0.8c-0.5,0.5-0.7,1.2-0.7,2s0.2,1.5,0.7,2s1,0.8,1.8,0.8
		c0.5,0,0.9-0.1,1.2-0.3c0.4-0.2,0.6-0.5,0.8-0.9h2.6c-0.3,1.1-0.8,1.9-1.7,2.5c-0.8,0.6-1.8,0.9-3,0.9c-0.9,0-1.8-0.2-2.5-0.6
		c-0.7-0.4-1.3-1-1.7-1.8s-0.6-1.6-0.6-2.6S162.4,88.6,162.8,87.8z"/>
	<path class="st1" d="M178.9,85.5v9.8h-2.4v-9.8H178.9z"/>
	<path class="st1" d="M190.3,86.2c0.8,0.4,1.4,1,1.8,1.7c0.4,0.7,0.6,1.6,0.6,2.6c0,1-0.2,1.8-0.6,2.5s-1,1.3-1.8,1.7
		c-0.8,0.4-1.7,0.6-2.7,0.6H184v-9.8h3.7C188.6,85.5,189.5,85.7,190.3,86.2z M189.6,92.5c0.5-0.5,0.8-1.2,0.8-2.1
		c0-0.9-0.2-1.6-0.8-2.1c-0.5-0.5-1.2-0.8-2.1-0.8h-1.1v5.7h1.1C188.4,93.2,189.1,93,189.6,92.5z"/>
	<path class="st1" d="M199.8,87.4v2h3.2v1.8h-3.2v2.1h3.6v1.9h-6v-9.8h6v1.9H199.8z"/>
	<path class="st1" d="M217,95.3h-2.4l-4-6v6h-2.4v-9.8h2.4l4,6v-6h2.4V95.3z"/>
	<path class="st1" d="M229.1,85.5v1.9h-2.6v7.9h-2.4v-7.9h-2.6v-1.9H229.1z"/>
	<path class="st1" d="M242.3,93.5h3.1v1.8h-5.5v-9.8h2.4V93.5z"/>
	<path class="st1" d="M255.9,93.6h-3.6l-0.6,1.7h-2.5l3.5-9.8h2.8l3.5,9.8h-2.5L255.9,93.6z M255.3,91.7l-1.2-3.6l-1.2,3.6H255.3z"
		/>
	<path class="st1" d="M276.9,85.5l-2.5,9.8h-2.9l-1.6-6.4l-1.6,6.4h-2.9l-2.5-9.8h2.5l1.4,7.1l1.7-7.1h2.6l1.7,7.1l1.4-7.1H276.9z"
		/>
	<path class="st1" d="M289.8,85.5l-3.4,6.5v3.2H284v-3.2l-3.4-6.5h2.7l1.9,4.1l1.9-4.1H289.8z"/>
	<path class="st1" d="M296.4,87.4v2h3.2v1.8h-3.2v2.1h3.6v1.9h-6v-9.8h6v1.9H296.4z"/>
	<path class="st1" d="M309.9,95.3l-2-3.7h-0.6v3.7h-2.4v-9.8h4c0.8,0,1.4,0.1,2,0.4c0.5,0.3,0.9,0.6,1.2,1.1c0.3,0.5,0.4,1,0.4,1.6
		c0,0.6-0.2,1.2-0.5,1.7c-0.4,0.5-0.9,0.9-1.6,1.1l2.3,3.9H309.9z M307.3,89.9h1.5c0.4,0,0.8-0.1,1-0.3c0.2-0.2,0.3-0.5,0.3-0.9
		c0-0.4-0.1-0.7-0.3-0.9c-0.2-0.2-0.5-0.3-1-0.3h-1.5V89.9z"/>
	<path class="st1" d="M318.9,95.1c-0.6-0.2-1-0.6-1.4-1c-0.3-0.5-0.5-1-0.5-1.6h2.5c0,0.4,0.2,0.6,0.4,0.8c0.2,0.2,0.5,0.3,0.8,0.3
		c0.4,0,0.6-0.1,0.8-0.2c0.2-0.2,0.3-0.4,0.3-0.7c0-0.2-0.1-0.4-0.2-0.6c-0.2-0.2-0.4-0.3-0.6-0.4c-0.2-0.1-0.6-0.2-1-0.3
		c-0.6-0.2-1.1-0.4-1.5-0.6s-0.7-0.5-1-0.9c-0.3-0.4-0.4-0.9-0.4-1.5c0-0.9,0.3-1.6,1-2.1c0.7-0.5,1.5-0.8,2.6-0.8
		c1.1,0,1.9,0.3,2.6,0.8c0.7,0.5,1,1.2,1.1,2.1h-2.6c0-0.3-0.1-0.6-0.3-0.7c-0.2-0.2-0.5-0.3-0.8-0.3c-0.3,0-0.5,0.1-0.7,0.2
		c-0.2,0.2-0.3,0.4-0.3,0.7c0,0.3,0.1,0.6,0.4,0.7s0.8,0.4,1.4,0.6c0.6,0.2,1.1,0.4,1.5,0.6s0.7,0.5,1,0.8c0.3,0.4,0.4,0.8,0.4,1.4
		c0,0.6-0.1,1.1-0.4,1.5c-0.3,0.5-0.7,0.8-1.2,1.1c-0.5,0.3-1.2,0.4-1.9,0.4C320.1,95.4,319.5,95.3,318.9,95.1z"/>
</g>
</svg>
