<?xml version="1.0" encoding="utf-8"?>
<!-- Generator: Adobe Illustrator 21.1.0, SVG Export Plug-In . SVG Version: 6.00 Build 0)  -->
<svg version="1.1" id="Layer_1" xmlns="http://www.w3.org/2000/svg" xmlns:xlink="http://www.w3.org/1999/xlink" x="0px" y="0px"
	 viewBox="0 0 153.3 91.9" style="enable-background:new 0 0 153.3 91.9;" xml:space="preserve">
<style type="text/css">
	.st0{fill:none;}
</style>
<g>
	<path class="st0" d="M112.6,46.6c0.2-1.6,0.5-3.2,0.5-4.8c0-7.3,0-14.6,0-21.9c0-2-0.1-4-0.2-6c-0.2-2.7-1.2-3.9-3.8-4.3
		c-1.6-0.2-3.2-0.1-4.9,0c0,13.5,0,26.7,0,40.3c1.9,0,3.6,0,5.3-0.3C111.3,49.5,112.4,48.4,112.6,46.6z"/>
	<path d="M35.6,84.8c0.3,0.5,0.7,0.9,1.2,1.2c0.5,0.3,1,0.4,1.7,0.4c0.7,0,1.3-0.1,1.8-0.4c0.5-0.3,0.9-0.7,1.1-1.1
		c0.3-0.5,0.5-1,0.6-1.6c0.1-0.6,0.2-1.2,0.2-1.9c0-0.6-0.1-1.3-0.2-1.9c-0.1-0.6-0.3-1.1-0.6-1.6c-0.3-0.5-0.7-0.8-1.1-1.1
		c-0.5-0.3-1.1-0.4-1.8-0.4c-0.7,0-1.3,0.1-1.8,0.4c-0.5,0.3-0.9,0.7-1.2,1.1c-0.3,0.5-0.5,1-0.6,1.6c-0.1,0.6-0.2,1.2-0.2,1.9
		c0,0.6,0.1,1.2,0.2,1.8C35.1,83.8,35.3,84.3,35.6,84.8z"/>
	<path d="M15.4,77.2c-0.5-0.6-1.3-0.9-2.4-0.9c-0.7,0-1.3,0.1-1.7,0.3c-0.5,0.2-0.8,0.5-1.1,0.9c-0.3,0.3-0.5,0.7-0.6,1.1
		c-0.1,0.4-0.2,0.7-0.2,1h7C16.3,78.6,15.9,77.7,15.4,77.2z"/>
	<path d="M111.7,84.8c0.3,0.5,0.7,0.9,1.2,1.1c0.5,0.3,1.1,0.4,1.8,0.4s1.3-0.1,1.8-0.4c0.5-0.3,0.9-0.7,1.2-1.1
		c0.3-0.5,0.5-1,0.6-1.6c0.1-0.6,0.2-1.2,0.2-1.8c0-0.6-0.1-1.2-0.2-1.9c-0.1-0.6-0.3-1.1-0.6-1.6c-0.3-0.5-0.7-0.8-1.2-1.1
		c-0.5-0.3-1.1-0.4-1.8-0.4s-1.3,0.1-1.8,0.4c-0.5,0.3-0.9,0.7-1.2,1.1c-0.3,0.5-0.5,1-0.6,1.6c-0.1,0.6-0.2,1.2-0.2,1.9
		c0,0.6,0.1,1.2,0.2,1.8C111.2,83.8,111.4,84.3,111.7,84.8z"/>
	<path d="M0,91.9h153.3V64.8H0V91.9z M133.4,73.5h4.1v2.2h0.1c0.5-0.9,1.3-1.6,2.1-2c0.9-0.4,1.8-0.6,2.7-0.6c1.2,0,2.1,0.2,2.8,0.5
		c0.7,0.3,1.3,0.7,1.7,1.3c0.4,0.6,0.7,1.2,0.9,2c0.2,0.8,0.3,1.7,0.3,2.7v9.7h-4.3v-8.9c0-1.3-0.2-2.3-0.6-2.9
		c-0.4-0.6-1.1-1-2.2-1c-1.2,0-2,0.3-2.6,1c-0.5,0.7-0.8,1.8-0.8,3.4v8.2h-4.3V73.5z M107.1,77.9c0.4-1,0.9-1.9,1.6-2.6
		c0.7-0.7,1.6-1.3,2.6-1.7c1-0.4,2.1-0.6,3.3-0.6c1.2,0,2.4,0.2,3.4,0.6c1,0.4,1.9,1,2.6,1.7c0.7,0.7,1.3,1.6,1.6,2.6
		c0.4,1,0.6,2.2,0.6,3.4c0,1.3-0.2,2.4-0.6,3.4c-0.4,1-0.9,1.9-1.6,2.6c-0.7,0.7-1.6,1.3-2.6,1.7c-1,0.4-2.1,0.6-3.4,0.6
		c-1.2,0-2.4-0.2-3.3-0.6c-1-0.4-1.8-0.9-2.6-1.7c-0.7-0.7-1.3-1.6-1.6-2.6c-0.4-1-0.6-2.1-0.6-3.4C106.6,80.1,106.8,79,107.1,77.9z
		 M91.6,67.5h4.3V71h-4.3V67.5z M91.6,73.5h4.3v15.7h-4.3V73.5z M71.6,73.5h2.6v-4.7h4.3v4.7h3.2v2.9h-3.2v7.8
		c0,0.7,0.1,1.2,0.4,1.5c0.2,0.2,0.7,0.4,1.5,0.4c0.2,0,0.5,0,0.7,0c0.2,0,0.4-0.1,0.6-0.1v3.3c-0.4,0.1-0.8,0.1-1.2,0.1
		c-0.4,0-0.9,0-1.3,0c-0.7,0-1.3,0-1.9-0.1c-0.6-0.1-1.1-0.3-1.6-0.5c-0.5-0.3-0.8-0.6-1.1-1.1c-0.3-0.5-0.4-1.1-0.4-1.9v-9.3h-2.6
		V73.5z M57.5,67.5h4.3V71h-4.3V67.5z M57.5,73.5h4.3v15.7h-4.3V73.5z M30.9,78.1c0.3-1,0.7-1.8,1.3-2.6c0.6-0.7,1.3-1.4,2.2-1.8
		c0.9-0.5,1.9-0.7,3-0.7c0.9,0,1.8,0.2,2.7,0.6c0.8,0.4,1.5,1,2,1.7h0.1v-7.9h4.3v21.7h-4.1v-2h-0.1c-0.5,0.9-1.2,1.5-2,1.8
		c-0.8,0.4-1.7,0.6-2.8,0.6c-1.2,0-2.2-0.2-3.1-0.7c-0.9-0.5-1.6-1.1-2.2-1.9c-0.6-0.8-1-1.7-1.3-2.7c-0.3-1-0.4-2.1-0.4-3.2
		C30.4,80.1,30.6,79.1,30.9,78.1z M5.7,78.1c0.4-1,0.9-1.9,1.6-2.6c0.7-0.7,1.6-1.3,2.5-1.7c1-0.4,2.1-0.6,3.3-0.6
		c1.3,0,2.5,0.3,3.5,0.8c1,0.5,1.8,1.2,2.4,2.1c0.6,0.9,1.1,1.9,1.4,3c0.3,1.1,0.4,2.3,0.3,3.5H9.5c0.1,1.4,0.4,2.4,1.1,3
		c0.6,0.6,1.6,0.9,2.8,0.9c0.9,0,1.6-0.2,2.2-0.7c0.6-0.4,1-0.9,1.2-1.4h3.8c-0.6,1.9-1.5,3.2-2.8,4c-1.3,0.8-2.8,1.2-4.6,1.2
		c-1.2,0-2.4-0.2-3.3-0.6c-1-0.4-1.8-1-2.5-1.7c-0.7-0.7-1.2-1.6-1.6-2.6c-0.4-1-0.6-2.1-0.6-3.3C5.1,80.2,5.3,79.1,5.7,78.1z"/>
	<path d="M108.4,58.1c2.4,0,4.9-0.1,7.3-0.6c3.9-0.8,6.7-3.1,7.6-7.1c0.6-2.7,0.9-5.6,0.9-8.4c0.1-8.3,0.2-16.6,0-24.9
		c-0.1-3.5-0.4-6.9-1.2-10.3c-1-4.2-3.9-6.1-8.2-6.2c-4.9-0.1-9.8-0.2-14.7-0.3c-2.1,0-4.2,0-6.5,0c0,19.4,0,38.6,0,57.8
		C98.6,58.2,103.5,58.2,108.4,58.1z M104.3,9.6c1.7-0.1,3.3-0.2,4.9,0c2.6,0.4,3.6,1.6,3.8,4.3c0.1,2,0.2,4,0.2,6
		c0,7.3,0,14.6,0,21.9c0,1.6-0.2,3.2-0.5,4.8c-0.2,1.8-1.3,2.8-3.1,3c-1.7,0.2-3.4,0.2-5.3,0.3C104.3,36.3,104.3,23.2,104.3,9.6z"/>
	<path d="M55.4,57.5c4.6,1.4,9.3,1.8,14,0.4c1.3-0.4,2.2-0.7,3.3-1.2c2-1.1,2.4-1.4,3.4-2.6c1.5-1.9,2.2-4.1,2.4-6.5
		c0.5-5.2,0.1-10.2-3.8-14.3c-4.2-4.3-8.3-8.8-12.4-13.1c-1.2-1.2-2.1-2.6-2.1-4.4c0-1.7,0.1-3.3,0.2-4.9c0-0.6,0.1-1.3,0.4-1.7
		c1-1.3,5.1-1.2,6.1,0.1c0.3,0.3,0.4,0.9,0.4,1.3c0,2.3,0,4.6,0,7c3.6,0,6.8,0,10.2,0c0-2.3,0.1-4.6,0-6.8
		c-0.2-5.9-3.1-9.3-8.9-10.2C65-0.2,61.3-0.1,57.8,0.9c-3.7,1-6.7,3.2-7.8,7C48.2,14,48.7,20,53.2,24.9c3.8,4.2,7.8,8.2,11.8,12.1
		c2.7,2.7,3.6,5.8,3.1,9.4c-0.4,2.7-1.7,3.7-4.8,3.6c-2.4-0.1-3.4-1-3.7-3.8c-0.2-2-0.2-4.1-0.3-6.1c-3.5,0-6.8,0-10.3,0
		c0,3-0.2,6,0.1,8.9C49.4,53.1,51.4,56.2,55.4,57.5z"/>
	<rect x="0.2" y="0.4" width="12" height="57.9"/>
	<rect x="79.4" y="0.4" width="12" height="57.9"/>
	<polygon points="137.5,49.8 137.5,32.9 151.8,32.9 151.8,24.4 137.5,24.4 137.5,9.4 152.5,9.4 152.5,0.4 137.5,0.4 125.8,0.4 
		125.8,9.4 125.8,24.4 125.8,32.9 125.8,49.8 125.8,58.3 137.5,58.3 153.3,58.3 153.3,49.8 	"/>
	<polygon points="24.3,26.2 33.8,58.3 47.5,58.3 47.5,0.4 37.5,0.4 37.5,31.9 28.1,0.4 14.2,0.4 14.2,58.3 24.3,58.3 	"/>
</g>
</svg>
