<?xml version="1.0" encoding="utf-8"?>
<!-- Generator: Adobe Illustrator 21.1.0, SVG Export Plug-In . SVG Version: 6.00 Build 0)  -->
<svg version="1.1" id="Layer_1" xmlns="http://www.w3.org/2000/svg" xmlns:xlink="http://www.w3.org/1999/xlink" x="0px" y="0px"
	 viewBox="0 0 140.8 104.4" style="enable-background:new 0 0 140.8 104.4;" xml:space="preserve">
<style type="text/css">
	.st0{fill:none;}
	.st1{fill:#373737;}
	.st2{fill:#F37125;}
</style>
<g>
	<path class="st0" d="M71.2,82.5c-1.5-0.1-2.9-0.1-4.4-0.1c-0.6,0-0.8,0.2-0.8,0.8c0,2.2,0,4.4,0,6.6c0,0,0,0,0,0c0,1.5,0,3,0,4.5
		c0,0.7,0,1.5,0,2.2c0,0.6,0.2,0.8,0.8,0.8c1.3,0,2.5,0,3.8,0c1.6,0,3.2-0.5,4.5-1.5c2.5-2,3.2-4.8,2.6-7.8
		C77.1,84.8,74.5,82.7,71.2,82.5z"/>
	<path class="st0" d="M40.4,82.1c-2.9-0.3-6,1.2-7.3,4.3c-0.5,1.1-0.7,2.3-0.7,3.6c-0.1,2.2,0.7,4.1,2.3,5.8
		c0.6,0.6,1.3,1.1,2.1,1.4c1.7,0.7,3.5,0.8,5.3,0.2c2.3-0.7,3.7-2.4,4.5-4.6c0.6-1.6,0.5-3.2,0.2-4.9C46.2,84.8,43.6,82.5,40.4,82.1
		z"/>
	<path class="st0" d="M103.7,92.6c-0.9-2.6-1.8-5.3-2.7-7.9c-0.1-0.2-0.1-0.3-0.2-0.5c-0.2,0.1-0.2,0.2-0.2,0.3
		c-0.2,0.5-0.3,1-0.5,1.5c-0.8,2.2-1.6,4.4-2.3,6.6c0,0.1-0.1,0.2-0.1,0.4c-0.1,0.2,0,0.4,0.3,0.4c0.1,0,0.3,0,0.4,0
		c1.3,0,2.6,0,3.9,0c0.4,0,0.7,0,1.1,0c0.4,0,0.5-0.2,0.4-0.5C103.7,92.8,103.7,92.7,103.7,92.6z"/>
	<path class="st1" d="M47.5,77.7c-4.6-2.5-9.4-2.8-14.2-0.8c-4,1.6-6.6,4.5-7.9,8.6c-0.9,3-0.8,6,0,8.9c0.8,3,2.6,5.4,5.1,7.1
		c2.1,1.5,4.5,2.4,7.1,2.7c0.1,0,0.2-0.1,0.3,0.1c1,0,1.9,0,2.9,0c0-0.1,0.1-0.1,0.2-0.1c0.9-0.1,1.7-0.2,2.6-0.4
		c5.1-1.2,8.5-4.3,10.2-9.3c0.9-2.6,0.9-5.2,0.3-7.9C53.2,82.7,51.1,79.7,47.5,77.7z M46.5,92.8c-0.8,2.2-2.2,3.9-4.5,4.6
		c-1.8,0.6-3.5,0.5-5.3-0.2c-0.8-0.3-1.5-0.8-2.1-1.4c-1.5-1.6-2.3-3.5-2.3-5.8c0-1.2,0.2-2.4,0.7-3.6c1.3-3.1,4.4-4.6,7.3-4.3
		c3.2,0.3,5.8,2.7,6.4,5.8C47.1,89.6,47.1,91.2,46.5,92.8z"/>
	<path class="st1" d="M139.5,76.1c-2,0-4,0-6,0c-0.9,0-1.4,0.3-1.8,1c-1.5,2.6-3,5.2-4.5,7.9c-0.4,0.7-0.5,0.7-0.9,0
		c-0.9-1.6-1.9-3.1-2.8-4.7c-0.7-1.1-1.4-2.3-2-3.4c-0.3-0.6-0.8-0.8-1.4-0.8c-2.3,0.1-4.7,0-7,0c-0.2,0-0.3,0-0.4,0.2
		c-0.1,0.2,0,0.3,0.1,0.4c1,1.6,2,3.1,3,4.7c2.3,3.6,4.5,7.1,6.8,10.7c0.2,0.4,0.4,0.7,0.4,1.2c0,3.2,0,6.4,0,9.6c0,0.9,0.1,1,1,1
		c1.9,0,3.7,0,5.6,0c1,0,1.1,0,1.1-1c0-3,0-6,0.1-9c0-1.6-0.1-1.2,0.7-2.4c3.2-5,6.3-9.9,9.5-14.9c0-0.1,0-0.2,0-0.3
		C140.4,76.1,140,76.1,139.5,76.1z"/>
	<path class="st2" d="M18.2,68.3c0-1.6,0.2-3.3,0.4-4.9c0.5-4.3,1.6-8.5,3.1-12.5c1.6-4.2,3.9-8.1,6.5-11.8
		c2.9-4.1,6.6-7.6,10.6-10.6c7.8-5.9,16.6-9.2,26.3-10.2c3.7-0.4,7.4-0.3,11.1,0.2c4.1,0.5,8.1,1.4,11.9,2.9
		c2.1,0.8,4.3,1.6,6.2,2.8c1.1,0.7,2.2,1.3,3.3,1.9c0.7,0.4,1.4,0.9,2.1,1.4c2.4,1.7,4.6,3.6,6.7,5.5c2.2,2.1,4.1,4.5,5.9,6.9
		c0.4,0.6,0.8,1.2,1.2,1.8c0.5,0.9,1.1,1.9,1.7,2.8c0.4,0.7,0.8,1.4,1.2,2.1c1.7,3.3,3,6.8,3.9,10.5c0.6,2.6,1.1,5.2,1.4,7.9
		c0.1,1.2,0.2,2.3,0.2,3.5h18.2c0,0,0,0,0,0c-0.1-2.5-0.2-5-0.6-7.5c-0.3-2.4-0.7-4.7-1.2-7c-1.3-5.7-3.3-11.1-6-16.3
		c-4.6-8.8-10.9-16.3-18.5-22.5c-6.3-5.1-13.4-8.9-21.1-11.5c-5.6-1.9-11.2-3.1-17.1-3.5c-5.1-0.4-10.1-0.3-15.1,0.5
		c-3.4,0.5-6.7,1.1-9.9,2.1c-2.8,0.9-5.6,1.7-8.3,2.9c-3,1.3-5.9,3-8.8,4.7c-2.1,1.3-4.2,2.6-6,4.2c-0.9,0.8-1.8,1.5-2.8,2.2
		c-4,3-7.5,6.5-10.4,10.5C8.3,35.1,4.4,43.6,2.1,52.9c-1.1,4.3-1.8,8.6-1.9,13c0,0.8-0.1,1.5-0.2,2.3c0,0.1,0,0.2,0,0.2h18.2
		C18.2,68.4,18.2,68.3,18.2,68.3z"/>
	<path class="st2" d="M115.9,62.4c-0.5-3-1.1-6-2.2-8.9c-4-10.4-10.8-18.6-20.5-24.2c-7-4.1-14.6-6.1-22.8-6.1
		c-4.3,0-8.4,0.4-12.5,1.5c-5.3,1.4-10.1,3.7-14.6,6.8c-6.8,4.7-12,10.8-15.6,18.2c-2.9,5.8-4.2,12.1-4.4,18.6c0,0,0,0.1,0,0.1h18.1
		c0,0,0,0,0-0.1c0.1-1.8,0.3-3.6,0.8-5.4c1.9-7.8,6.3-13.8,13.2-17.9c4.4-2.6,9.2-4,14.4-4c2.2,0,4.4,0.4,6.6,0.8
		c4.1,0.9,7.8,2.6,11.1,5.3c1.5,1.2,2.9,2.7,4.2,4.2c1.7,1.9,3,3.9,4.1,6.2c1.4,3,2.3,6.1,2.6,9.3c0,0.5,0.1,1,0.1,1.6h18.1
		c0-0.5,0-1.1-0.1-1.6C116.3,65.4,116.1,63.9,115.9,62.4z"/>
	<path class="st2" d="M71,46.2c-4.1-0.2-8.1,0.6-11.8,2.5c-7.3,3.7-12.4,11.1-12.8,19.8h46.9c-0.1-1.5-0.3-2.9-0.6-4.3
		C90.4,54.3,81.8,46.7,71,46.2z"/>
	<path class="st1" d="M82.6,81.4c-1.7-2.2-4-3.6-6.6-4.5c-1.9-0.6-3.9-0.8-5.8-0.8c-3.6,0-7.1,0-10.7,0c-0.1,0-0.2,0-0.3,0
		c-0.2,0-0.4,0.2-0.4,0.4c0,0.1,0,0.3,0,0.4c0,1.1,0,2.1,0,3.2c0,3.7,0.1,7.3-0.1,11c-0.1,1.9,0,3.7,0,5.6c0,0,0,0,0,0
		c0,2.1,0,4.1,0,6.2c0,0.2,0,0.3,0,0.5c0,0.4,0.2,0.5,0.6,0.5c0.2,0,0.4,0,0.7,0c1.9,0,3.9,0,5.8,0c1.8,0,3.6,0.1,5.4,0
		c1.5-0.1,2.9-0.3,4.4-0.7c4.9-1.4,8-4.6,9.4-9.4c0.6-2.2,0.5-4.5,0.1-6.7C84.7,84.9,83.9,83,82.6,81.4z M75.1,95.8
		c-1.3,1-2.8,1.5-4.5,1.5c-1.3,0-2.5,0-3.8,0c-0.6,0-0.8-0.2-0.8-0.8c0-0.7,0-1.5,0-2.2c0-1.5,0-3,0-4.5c0,0,0,0,0,0
		c0-2.2,0-4.4,0-6.6c0-0.6,0.1-0.8,0.8-0.8c1.5,0,2.9,0,4.4,0.1c3.3,0.2,5.9,2.3,6.5,5.5C78.2,91,77.6,93.8,75.1,95.8z"/>
	<path class="st1" d="M105.6,76.9c-0.3-0.8-0.5-0.9-1.3-0.9c-1.2,0-2.4,0-3.7,0c0,0,0,0,0,0c-0.3,0-0.7,0-1,0c-0.9,0-1.8,0-2.7,0
		c-0.8,0-1,0.1-1.3,0.9c0,0.1-0.1,0.3-0.2,0.4c-2.3,6.2-4.6,12.3-6.9,18.5c-0.9,2.4-1.8,4.9-2.8,7.3c-0.2,0.6-0.1,0.8,0.5,0.8
		c0.6,0,1.2,0,1.8,0c1.6,0,3.3,0,4.9,0c0.8,0,0.9-0.1,1.2-0.8c0.3-0.8,0.5-1.6,0.8-2.4c0.2-0.6,0.5-0.8,1.1-0.8c0.1,0,0.2,0,0.3,0
		c1.6,0,3.1,0,4.7,0c1.3,0,2.7,0,4,0c0.6,0,0.8,0.2,1,0.7c0.3,0.8,0.6,1.7,0.9,2.5c0.2,0.7,0.3,0.8,1.1,0.8c2.3,0,4.5,0,6.8,0
		c0.8,0,0.9-0.1,0.6-0.8C112.2,94.3,108.9,85.6,105.6,76.9z M103.3,93.4c-0.3,0-0.7,0-1.1,0c-1.3,0-2.6,0-3.9,0c-0.1,0-0.3,0-0.4,0
		c-0.3,0-0.4-0.2-0.3-0.4c0-0.1,0.1-0.2,0.1-0.4c0.7-2.2,1.5-4.4,2.3-6.6c0.2-0.5,0.3-1,0.5-1.5c0-0.1,0.1-0.3,0.2-0.3
		c0.2,0.1,0.2,0.3,0.2,0.5c0.9,2.6,1.8,5.3,2.7,7.9c0,0.1,0.1,0.2,0.1,0.3C103.8,93.3,103.7,93.4,103.3,93.4z"/>
	<path class="st1" d="M23.1,76.9c0-0.7-0.1-0.8-0.8-0.8c-0.1,0-0.2,0-0.3,0c-2.2,0-4.4,0-6.6,0c-1.2,0-2.4,0-3.7,0c0,0,0,0,0,0
		c-0.1,0-0.1,0-0.2,0c-2.8,0-5.5,0-8.3,0c-0.8,0-1.6,0-2.4,0c-0.5,0-0.6,0.1-0.7,0.6c0,0.1,0,0.2,0,0.3c0,1.5,0.1,3.1,0,4.6
		c0,0.6,0.2,0.8,0.9,0.8c2,0,4,0,6,0c0.8,0,0.9,0.1,0.9,0.9c0,2.7,0,5.3,0,8c0,3.9,0,7.7,0,11.6c0,0.2,0,0.3,0,0.5
		c0,0.2,0.2,0.4,0.4,0.4c0.1,0,0.3,0,0.4,0c1.9,0,3.9,0,5.8,0c0.9,0,1,0,1-1c0-4.4,0-8.8,0-13.2c0-2.1,0-4.2,0-6.4
		c0-0.7,0.1-0.8,0.8-0.8c1.8,0,3.6,0,5.4,0c0.3,0,0.5,0,0.8,0c0.5,0,0.6-0.2,0.7-0.7c0-0.3,0-0.5,0-0.8
		C23.1,79.7,23.1,78.3,23.1,76.9z"/>
</g>
</svg>
