<?xml version="1.0" encoding="utf-8"?>
<!-- Generator: Adobe Illustrator 21.1.0, SVG Export Plug-In . SVG Version: 6.00 Build 0)  -->
<svg version="1.1" id="Layer_1" xmlns="http://www.w3.org/2000/svg" xmlns:xlink="http://www.w3.org/1999/xlink" x="0px" y="0px"
	 viewBox="0 0 143.9 143.9" style="enable-background:new 0 0 143.9 143.9;" xml:space="preserve">
<style type="text/css">
	.st0{fill:#009BFF;}
</style>
<g>
	<path class="st0" d="M53.5,77.3c-1.4-0.6-2.9-0.7-4.4-0.3c-1.6,0.5-2.7,1.5-3.3,3c-0.8,1.8-0.8,3.7-0.1,5.6c0.5,1.4,1.6,2.4,3,3
		c0.9,0.3,1.8,0.4,2.7,0.3c2.2-0.2,3.8-1.2,4.7-3.3c0.4-0.9,0.5-1.8,0.5-2.7c0-0.5,0-1-0.1-1.5C56.2,79.6,55.2,78.1,53.5,77.3z"/>
	<path class="st0" d="M75.6,77.1c-1.1-0.3-2.1-0.3-3.2-0.3c-0.4,0-0.4,0-0.4,0.4c0,1.9,0,3.7,0,5.6c0,0.1,0,0.2,0,0.3
		c0,1.8,0,3.5,0,5.3c0,0.4,0,0.4,0.4,0.4c1,0,2,0,3-0.2c2.1-0.4,3.5-1.6,4.1-3.7c0.3-1.3,0.3-2.5,0.1-3.8
		C79.1,79,77.8,77.6,75.6,77.1z"/>
	<path class="st0" d="M98.8,82.7c-0.6-1.8-1.2-3.6-1.5-5.5c0,0,0-0.1,0-0.1c0-0.1,0-0.1-0.1-0.1c0,0-0.1,0-0.1,0.1
		c0,0.1-0.1,0.2-0.1,0.3c-0.1,0.9-0.4,1.9-0.7,2.8c-0.5,1.7-1.1,3.3-1.6,5c0,0.2-0.1,0.3-0.1,0.5c1.7,0,3.3,0,5.1,0
		c0-0.1-0.1-0.2-0.1-0.3C99.4,84.5,99.1,83.6,98.8,82.7z"/>
	<path class="st0" d="M74.3,58.8c-0.2-0.7-0.5-1.4-0.7-2.1c-0.5-1.6-1.1-3.1-1.4-4.7c-0.1-0.6-0.3-1.2-0.4-1.8c0-0.1,0-0.1-0.1-0.2
		c-0.1,0-0.1,0.1-0.1,0.1c0,0.1,0,0.1,0,0.2c-0.2,1-0.4,2-0.7,3c-0.5,1.6-1,3.3-1.6,4.9c0,0.1-0.1,0.3-0.1,0.5
		C70.9,58.8,72.5,58.8,74.3,58.8z"/>
	<path class="st0" d="M71.9,0C32.2,0,0,32.2,0,71.9s32.2,71.9,71.9,71.9s71.9-32.2,71.9-71.9S111.7,0,71.9,0z M60.3,66
		c2.6-6.9,5.1-13.8,7.7-20.7c0,0,0-0.1,0-0.1c0.2-0.5,0.1-0.4,0.6-0.4c2.1,0,4.1,0,6.2,0c0.4,0,0.4,0,0.6,0.4
		c2.7,7.2,5.4,14.4,8.1,21.7c0,0.1,0.1,0.2,0.1,0.3c-0.1,0.1-0.2,0-0.4,0c-1.9,0-3.9,0-5.8,0c-0.4,0-0.4,0-0.6-0.4
		c-0.3-0.8-0.5-1.6-0.8-2.4c-0.1-0.5-0.1-0.4-0.6-0.4c-2.5,0-5,0-7.6,0c-0.6,0-0.4,0-0.6,0.5c-0.3,0.8-0.5,1.7-0.8,2.5
		c-0.1,0.2-0.1,0.3-0.4,0.3c-2,0-4.1,0-6.2,0C60.1,66.7,60.2,66.3,60.3,66z M42.3,64.2c1-1.4,2-2.7,3-4.1c0.5,0.5,0.9,0.9,1.5,1.3
		c1.3,0.9,2.7,1.4,4.4,1.3c0.5,0,0.9-0.2,1.3-0.4c1.1-0.6,1-2.2,0.3-2.9c-0.3-0.3-0.6-0.5-1-0.6c-0.7-0.3-1.4-0.5-2.2-0.8
		c-1.3-0.4-2.7-0.9-3.8-1.7c-2-1.4-2.7-3.3-2.5-5.7c0.3-2.7,1.9-4.5,4.4-5.6c1.2-0.5,2.5-0.7,3.8-0.7c2,0,4,0.3,5.8,1.2
		c0.7,0.3,1.3,0.7,1.8,1.2c0.1,0.1,0.2,0.2,0.1,0.4c-0.9,1.3-1.8,2.6-2.7,4c0,0,0,0-0.1,0.1c-0.5-0.5-1-0.9-1.6-1.2
		c-1.1-0.6-2.3-0.8-3.5-0.6c-0.2,0-0.5,0.1-0.7,0.2c-1,0.5-1.2,1.7-0.4,2.4c0.4,0.3,0.8,0.5,1.3,0.7c0.9,0.3,1.8,0.6,2.7,0.9
		c0.9,0.3,1.7,0.7,2.5,1.2c1.8,1.1,2.8,2.6,3,4.7c0.1,1.7-0.2,3.3-1.1,4.7c-0.8,1.3-1.9,2.2-3.3,2.7c-1.7,0.7-3.5,0.9-5.4,0.8
		c-2-0.1-3.9-0.7-5.7-1.7c-0.6-0.4-1.2-0.8-1.7-1.3C42.3,64.4,42.2,64.3,42.3,64.2z M20.7,52.3c0-2.4,0-4.7,0-7.1c0-0.1,0-0.2,0-0.3
		c0-0.1,0.1-0.2,0.2-0.2c0.1,0,0.2,0,0.2,0c1.8,0,3.7,0,5.5,0c0.5,0,0.5-0.1,0.5,0.5c0,3.9,0,7.8,0,11.6c0,0.8,0,1.6,0.1,2.4
		c0,0.2,0.1,0.4,0.1,0.6c0.4,1.3,1.3,2,2.6,2.2c0.6,0.1,1.2,0,1.8-0.1c1-0.2,1.6-0.9,2-1.8c0.2-0.5,0.3-1.1,0.3-1.6
		c0-0.6,0-1.2,0-1.7c0-3.8,0-7.6,0-11.3c0-0.1,0-0.2,0-0.3c0-0.3,0.1-0.3,0.3-0.3c1.9,0,3.8,0,5.8,0c0.3,0,0.3,0,0.3,0.5
		c0,3.7,0,7.4,0,11c0,1,0,2,0,3c0,1.2-0.2,2.4-0.7,3.6c-0.8,2-2.3,3.3-4.3,4c-2.1,0.8-4.3,0.9-6.6,0.7c-1.2-0.1-2.4-0.4-3.6-0.8
		c-2.5-1.1-4-3-4.5-5.7c-0.1-0.7-0.2-1.5-0.2-2.2C20.7,56.6,20.7,54.5,20.7,52.3z M38.2,76.4c0,0.4,0,0.4-0.4,0.4c-1.5,0-3,0-4.5,0
		c-0.1,0-0.2,0-0.3,0c-0.3,0-0.3,0.1-0.3,0.3c0,0.1,0,0.2,0,0.3c0,5.3,0,10.6,0,15.9c0,0.1,0,0.2,0,0.3c0,0.2-0.1,0.3-0.3,0.3
		c-0.3,0-0.6,0-0.9,0c-1.6,0-3.1,0-4.7,0c-0.6,0-0.5,0-0.5-0.6c0-5.4,0-10.7,0-16.1c0-0.6,0-0.6-0.6-0.6c-1.5,0-3,0-4.6,0
		c-0.4,0-0.4,0-0.4-0.4c0-1.4,0-2.9,0-4.3c0-0.5-0.1-0.5,0.5-0.5c2.8,0,5.5,0,8.3,0c2.7,0,5.4,0,8.1,0c0.1,0,0.2,0,0.2,0
		c0.4,0,0.4,0,0.4,0.4C38.2,73.5,38.2,75,38.2,76.4z M56.5,93.4c-1.4,0.7-2.9,1-4.5,1.1c-2.1,0.1-4.1-0.1-6-0.8
		c-3.8-1.4-6.2-4.2-7.1-8.1c-1-4.4,0.1-8.2,3.4-11.4c1.7-1.6,3.7-2.5,6-2.9c2.4-0.4,4.9-0.3,7.2,0.5c4,1.5,6.4,4.4,7.4,8.5
		c0.1,0.4,0.1,0.8,0.2,1.2c0,0.4,0.1,0.8,0.1,1.3C63,87.7,61,91.3,56.5,93.4z M79.4,93.2c-1.8,0.7-3.6,0.9-5.5,0.9
		c-2.6,0-5.3,0-7.9,0c-0.1,0-0.2,0-0.3,0c-0.1,0-0.2-0.1-0.2-0.2c0-0.1,0-0.3,0-0.4c0-3.6,0-7.1,0-10.7c0-3.6,0-7.1,0-10.7
		c0-0.6-0.1-0.5,0.5-0.5c2.6,0,5.1,0,7.7,0c1.9,0,3.8,0.2,5.7,0.9c3.7,1.3,6,4,6.7,7.9c0.4,2.2,0.3,4.5-0.4,6.6
		C84.6,90.1,82.4,92,79.4,93.2z M108.7,94.1c-1.9,0-3.8,0-5.8,0c-0.5,0-0.4,0.1-0.6-0.4c-0.3-0.8-0.6-1.7-0.8-2.5
		c-0.1-0.2-0.2-0.3-0.4-0.3c-2.6,0-5.3,0-7.9,0c-0.2,0-0.3,0.1-0.4,0.3c-0.3,0.9-0.6,1.8-0.8,2.6c-0.1,0.2-0.1,0.3-0.4,0.3
		c-2,0-4.1,0-6.1,0c0,0,0,0-0.1-0.1c0.2-0.6,0.4-1.2,0.7-1.8c2.5-6.7,5-13.4,7.5-20c0.2-0.7,0.1-0.5,0.8-0.5c2,0,4,0,6,0
		c0.5,0,0.5,0,0.6,0.4c2.7,7.2,5.3,14.4,8,21.5c0,0.1,0.1,0.3,0.1,0.4C109,94.1,108.8,94.1,108.7,94.1z M127.9,72.3
		c-2.6,4.5-5.2,8.9-7.7,13.4c-0.2,0.3-0.2,0.5-0.2,0.9c0,2.3,0,4.6,0,6.9c0,0.1,0,0.2,0,0.3c0,0.2-0.1,0.3-0.3,0.2
		c-0.1,0-0.2,0-0.2,0c-1.9,0-3.8,0-5.8,0c-0.1,0-0.2,0-0.3,0c-0.1,0-0.2-0.1-0.2-0.2c0-0.1,0-0.2,0-0.3c0-2.3,0-4.7,0-7
		c0-0.3-0.1-0.6-0.2-0.9c-2.6-4.5-5.2-9-7.8-13.5c-0.1-0.1-0.2-0.3-0.3-0.5c1.1,0,2,0,3,0c1.2,0,2.5,0,3.7,0c0.2,0,0.4,0,0.5,0.3
		c1.1,2.1,2.3,4.2,3.4,6.3c0.5,1,0.9,1.9,1.2,3c0,0,0,0,0.1,0.1c0.1,0,0.1,0,0.1-0.1c0.3-1.2,0.8-2.3,1.3-3.3c1.1-2,2.2-4,3.3-6
		c0.1-0.2,0.2-0.3,0.5-0.3c2,0,4,0,6.1,0c0.4,0,0.4,0.1,0.3,0.4C128,72.1,127.9,72.2,127.9,72.3z"/>
</g>
</svg>
